<svg xmlns="http://www.w3.org/2000/svg" xmlns:xlink="http://www.w3.org/1999/xlink" width="192" height="256" viewBox="0 0 212 212" version="1.1">
    <g id="doctor-m" stroke="none" stroke-width="1" fill="none" fill-rule="evenodd">
        <g id="Group" transform="translate(23.000000, 1.000000)">
            <g id="Group-2">
                <g id="Group-3">
                    <path d="M66.1000012,130 L96.8999988,130 C127.883174,130 153,155.116826 153,186.100001 L153,209 L153,209 L10,209 L10,186.100001 C10,155.116826 35.1168261,130 66.1000012,130 Z" id="Rectangle-Copy-56" fill="#1899D6"/>
                    <path d="M63,128 L63,209 L0,209 L0,184.100001 C-1.0899772e-14,153.116826 25.1168261,128 56.1000012,128 L63,128 Z" id="Combined-Shape-Copy-2" fill="#2AD0D3"/>
                    <path d="M166,128 L166,209 L103,209 L103,184.100001 C103,153.116826 128.116826,128 159.100001,128 L166,128 Z" id="Combined-Shape-Copy-3" fill="#2AD0D3" transform="translate(134.500000, 168.500000) scale(-1, 1) translate(-134.500000, -168.500000) "/>
                    <path d="M84.9466357,156.413172 L95,209 L95,209 L69,209 L79.0533643,156.413172 C79.3644814,154.78579 80.9359454,153.718746 82.5633274,154.029863 C83.7711352,154.260768 84.7157313,155.205364 84.9466357,156.413172 Z" id="Rectangle" fill="#2B70C9"/>
                    <path d="M60.8333333,128 L102.166667,128 L85.0637041,145.378817 C83.1267656,147.346996 79.961042,147.372322 77.9928626,145.435383 C77.9738565,145.416679 77.9550003,145.397823 77.9362959,145.378817 L60.8333333,128 L60.8333333,128 Z" id="Rectangle" fill="#D58C6E"/>
                    <rect id="Rectangle" fill="#D58C6E" x="63" y="120" width="38" height="10"/>
                    <path d="M86.0514658,208.715532 L86.2149443,207.774753 L101.265639,122.41802 C101.553349,120.786337 103.109324,119.696831 104.741007,119.984541 C105.422489,120.104705 106.041475,120.456765 106.493092,120.981073 L122.660703,139.750991 C124.062936,141.378924 124.268358,143.720691 123.170967,145.567894 L106.390887,173.813463 L115.070647,183.890389 C116.47288,185.518323 116.678301,187.86009 115.58091,189.707293 C110.48611,198.283202 106.665203,204.704095 104.117803,208.99205 L86.0514658,208.715532 Z" id="Path" fill="#FFFFFF" transform="translate(104.961916, 164.465256) rotate(-1.000000) translate(-104.961916, -164.465256) "/>
                    <path d="M40.4624137,208.733005 L40.6258921,207.792226 L55.6765872,122.435493 C55.9642969,120.80381 57.5202721,119.714304 59.151955,120.002014 C59.8334366,120.122178 60.4524231,120.474238 60.9040398,120.998546 L77.0716513,139.768464 C78.4738842,141.396397 78.6793059,143.738164 77.5819148,145.585367 L60.8018354,173.830936 L69.4815945,183.907862 C70.8838274,185.535796 71.0892492,187.877563 69.991858,189.724766 C64.8970582,198.300675 61.0761511,204.721568 58.5287512,209.009523 L40.4624137,208.733005 Z" id="Path-Copy" fill="#FFFFFF" transform="translate(59.372864, 164.482729) scale(-1, 1) rotate(-1.000000) translate(-59.372864, -164.482729) "/>
                    <path d="M47,152 L47,145.5 C47,126.998461 61.9984609,112 80.5,112 L85.5,112 C104.001539,112 119,126.998461 119,145.5 L119,170" id="Path" stroke="#2B70C9" stroke-width="8" stroke-linejoin="round"/>
                    <rect id="Rectangle-Copy-45" fill="#2B70C9" x="30" y="0" width="103" height="105" rx="51.5"/>
                    <path d="M81.5,13 C105.524387,13 125,32.4756134 125,56.5 L125,108 C125,117.941125 116.941125,126 107,126 L56,126 C46.0588745,126 38,117.941125 38,108 L38,56.5 C38,32.4756134 57.4756134,13 81.5,13 Z" id="Rectangle-Copy-43" fill="#D58C6E"/>
                    <rect id="Rectangle-Copy-41" fill="#D58C6E" transform="translate(38.500000, 79.500000) rotate(-15.000000) translate(-38.500000, -79.500000) " x="26" y="61" width="25" height="37" rx="12.5"/>
                    <rect id="Rectangle-Copy-40" fill="#D58C6E" transform="translate(124.500000, 79.500000) scale(-1, 1) rotate(-15.000000) translate(-124.500000, -79.500000) " x="112" y="61" width="25" height="37" rx="12.5"/>
                    <path d="M49,84.7989899 L114,84.7989899 C116.209139,84.7989899 118,86.5898509 118,88.7989899 L118,102.29899 C118,111.963973 110.164983,119.79899 100.5,119.79899 L62.5,119.79899 C52.8350169,119.79899 45,111.963973 45,102.29899 L45,88.7989899 C45,86.5898509 46.790861,84.7989899 49,84.7989899 Z" id="Rectangle" fill="#FFFFFF"/>
                    <rect id="Rectangle-Copy-3" fill="#FFFFFF" transform="translate(105.445436, 105.445436) scale(-1, -1) rotate(-45.000000) translate(-105.445436, -105.445436) " x="102.445436" y="80.9454365" width="6" height="49" rx="3"/>
                    <rect id="Rectangle-Copy-4" fill="#FFFFFF" transform="translate(58.798990, 105.798990) scale(1, -1) rotate(-45.000000) translate(-58.798990, -105.798990) " x="55.7989899" y="80.7989899" width="6" height="50" rx="3"/>
                    <rect id="Rectangle-Copy-7" fill="#D2E4E8" x="56" y="93.7989899" width="52" height="5" rx="2.5"/>
                    <rect id="Rectangle-Copy-6" fill="#D2E4E8" x="56" y="105.79899" width="52" height="5" rx="2.5"/>
                    <circle id="Oval" fill="#1899D6" cx="119" cy="184" r="15"/>
                    <circle id="Oval-Copy" stroke="#2B70C9" stroke-width="4" fill="#1899D6" stroke-linejoin="round" cx="119" cy="184" r="9"/>
                    <path d="M36.8261553,197 C31.9516043,197 28,193.251686 28,188.627907 C28,188.369006 28.0126609,188.110244 28.0379417,187.852456 L30.808944,159.596642 C31.2311047,155.291883 35.0393362,152 39.5971575,152 L39.5971575,152 L54.4022548,152 C58.9600761,152 62.7683075,155.291883 63.1904683,159.596642 L65.9614705,187.852456 C66.4129679,192.456358 62.8443615,196.53574 57.9907652,196.96401 C57.7189957,196.98799 57.4461998,197 57.173257,197" id="Path" stroke="#1899D6" stroke-width="7.70000017" stroke-linecap="round"/>
                    <rect id="Rectangle" fill="#2B70C9" x="33" y="192" width="12" height="9" rx="4"/>
                    <rect id="Rectangle-Copy" fill="#2B70C9" x="50" y="192" width="12" height="9" rx="4"/>
                    <rect id="Rectangle" fill="#4B4B4B" transform="translate(97.901049, 34.556273) rotate(-354.000000) translate(-97.901049, -34.556273) " x="83.9010485" y="27.5562726" width="28" height="14" rx="7"/>
                    <rect id="Rectangle-Copy-8" fill="#4B4B4B" transform="translate(65.655006, 34.556273) scale(-1, 1) rotate(-354.000000) translate(-65.655006, -34.556273) " x="51.6550058" y="27.5562726" width="28" height="14" rx="7"/>
                    <rect id="Rectangle" stroke="#4B4B4B" stroke-width="5.50000012" fill="#FFFFFF" x="38.9230769" y="43" width="41" height="41" rx="14.3000003"/>
                    <rect id="Rectangle-Copy-5" stroke="#4B4B4B" stroke-width="5.50000012" fill="#FFFFFF" x="83.0769231" y="43" width="41" height="41" rx="14.3000003"/>
                    <rect id="Rectangle" fill="#4B4B4B" x="90" y="51" width="15" height="22" rx="7.5"/>
                    <rect id="Rectangle-Copy-2" fill="#4B4B4B" x="58" y="51" width="15" height="22" rx="7.5"/>
                </g>
            </g>
        </g>
    </g>
</svg>