<svg xmlns="http://www.w3.org/2000/svg" viewBox="0 0 205 181" fill="none" width="192" height="256">
	<path fill-rule="evenodd" clip-rule="evenodd" d="M177.863 168.163H198.451C201.713 168.163 204.413 170.863 204.413 174.125C204.413 177.388 201.713 180.088 198.451 180.088H177.863C174.601 180.088 171.901 177.388 171.901 174.125C171.901 170.863 174.601 168.163 177.863 168.163Z" fill="#6F94A0" />
	<path fill-rule="evenodd" clip-rule="evenodd" d="M104.851 54.8751C92.8133 59.2626 86.6258 72.4251 90.9008 84.4626C91.1258 85.1376 91.3508 85.7001 91.6883 86.3751L133.088 175.25C134.438 178.175 137.363 180.088 140.626 180.088L178.538 180.2C183.151 180.2 186.863 176.488 186.863 171.875C186.863 170.638 186.638 169.4 186.076 168.275L139.388 69.1626C133.313 56.2251 118.351 50.0376 104.851 54.8751Z" fill="#575757" />
	<path fill-rule="evenodd" clip-rule="evenodd" d="M74.8133 56.6748H97.7633C114.301 56.6748 127.801 70.1748 127.801 86.7123C127.801 90.9873 126.901 95.1498 125.213 98.9748L98.4383 158.712C92.5883 171.65 79.7633 180.087 65.4758 180.087H42.5258C25.9883 180.087 12.4883 166.587 12.4883 150.05C12.4883 145.775 13.3883 141.612 15.0758 137.787L41.8508 78.0498C47.7008 65.1123 60.6383 56.6748 74.8133 56.6748Z" fill="#BABABA" />
	<path fill-rule="evenodd" clip-rule="evenodd" d="M106.651 64.4375H106.763C119.476 64.4375 129.826 74.7875 129.826 87.5V106.512C129.826 119.225 119.476 129.575 106.763 129.575H106.651C93.9384 129.575 83.5884 119.225 83.5884 106.512V87.5C83.5884 74.7875 93.9384 64.4375 106.651 64.4375Z" fill="#BABABA" />
	<path fill-rule="evenodd" clip-rule="evenodd" d="M94.7258 96.8375C76.3883 96.8375 61.4258 81.9875 61.4258 63.5375C61.4258 61.5125 61.6508 59.4875 61.9883 57.4625L68.4008 22.8125C70.7633 10.1 81.7883 0.875 94.7258 0.875C107.663 0.875 118.688 10.1 121.051 22.7L127.463 57.35C130.838 75.4625 118.913 92.7875 100.801 96.1625C98.7758 96.6125 96.7508 96.8375 94.7258 96.8375Z" fill="#575757" />
	<path opacity="0.5869" fill-rule="evenodd" clip-rule="evenodd" d="M104.176 20.6748C105.638 20.6748 106.763 21.7998 106.763 23.2623V27.5373C106.763 28.9998 105.638 30.1248 104.176 30.1248C102.713 30.1248 101.588 28.9998 101.588 27.5373V23.2623C101.588 21.9123 102.713 20.6748 104.176 20.6748Z" fill="#848383" />
	<path opacity="0.5869" fill-rule="evenodd" clip-rule="evenodd" d="M95.4009 26.75C96.6384 26.075 98.2134 26.4125 98.8884 27.65C99.5634 28.8875 99.2259 30.4625 97.9884 31.1375C96.7509 31.8125 95.1759 31.475 94.5009 30.2375C93.7134 29 94.1634 27.425 95.4009 26.75Z" fill="#848383" />
	<path opacity="0.5869" fill-rule="evenodd" clip-rule="evenodd" d="M112.951 26.75C111.713 26.075 110.138 26.4125 109.463 27.65C108.788 28.8875 109.126 30.4625 110.363 31.1375C111.601 31.8125 113.176 31.475 113.851 30.2375C114.638 29 114.188 27.425 112.951 26.75Z" fill="#848383" />
	<path fill-rule="evenodd" clip-rule="evenodd" d="M77.1759 63.9875L78.4134 65.45C86.5134 75.2375 85.2759 89.75 75.4884 97.9625C74.9259 98.3 74.3634 98.75 73.8009 99.0875L38.5884 123.5C28.1259 130.7 13.9509 128.675 5.96338 118.888L5.62588 118.438C-2.13662 108.875 -0.674118 94.8125 8.88838 87.05C9.00088 86.9375 9.22588 86.825 9.33838 86.7125L43.7634 60.275C54.1134 52.2875 68.8509 53.975 77.1759 63.9875Z" fill="#575757" />
	<path fill-rule="evenodd" clip-rule="evenodd" d="M92.0258 40.9248H111.938C117.451 40.9248 121.838 45.4248 121.838 50.8248C121.838 56.3373 117.338 60.7248 111.938 60.7248H92.0258C86.5133 60.7248 82.1258 56.2248 82.1258 50.8248C82.0133 45.4248 86.5133 40.9248 92.0258 40.9248Z" fill="#6F94A0" />
	<path fill-rule="evenodd" clip-rule="evenodd" d="M55.4634 120.125C66.6009 120.125 75.8259 129.125 76.0509 140.263L76.7259 171.65C76.8384 176.263 73.1259 179.975 68.6259 180.088H68.5134H44.8884C40.3884 180.088 36.6759 176.488 36.5634 171.988L35.8884 140.263C35.6634 129.35 44.3259 120.35 55.1259 120.125C55.1259 120.125 55.2384 120.125 55.4634 120.125Z" fill="#575757" />
	<path fill-rule="evenodd" clip-rule="evenodd" d="M118.801 159.838C118.801 171.088 109.688 180.2 98.4385 180.2H67.051C62.4385 180.2 58.726 176.488 58.726 171.875V148.925C58.726 144.425 62.326 140.713 66.826 140.6L98.326 139.925C109.351 139.7 118.463 148.363 118.688 159.388C118.801 159.613 118.801 159.725 118.801 159.838Z" fill="#575757" />
	<path fill-rule="evenodd" clip-rule="evenodd" d="M88.7633 103.7V103.812C88.7633 116.412 78.6383 126.65 66.0383 126.875L26.6633 127.55C14.2883 127.775 4.16332 117.875 3.93832 105.5C3.93832 105.387 3.93832 105.275 3.93832 105.162V105.05C3.93832 92.4499 14.0633 82.2124 26.5508 81.9874L65.9258 81.3124C78.3008 81.0874 88.5383 90.9874 88.7633 103.362C88.7633 103.475 88.7633 103.587 88.7633 103.7Z" fill="#575757" />
	<path fill-rule="evenodd" clip-rule="evenodd" d="M96.8634 38.6748C99.4509 38.6748 101.588 40.8123 101.588 43.3998V45.9873C101.588 48.5748 99.4509 50.7123 96.8634 50.7123C94.2759 50.7123 92.1384 48.5748 92.1384 45.9873V43.3998C92.1384 40.8123 94.2759 38.6748 96.8634 38.6748Z" fill="white" />
	<path fill-rule="evenodd" clip-rule="evenodd" d="M108.001 38.6748C110.588 38.6748 112.726 40.8123 112.726 43.3998V45.9873C112.726 48.5748 110.588 50.7123 108.001 50.7123C105.413 50.7123 103.276 48.5748 103.276 45.9873V43.3998C103.388 40.8123 105.413 38.6748 108.001 38.6748Z" fill="white" />
	<path fill-rule="evenodd" clip-rule="evenodd" d="M107.213 41.2627C108.451 41.2627 109.351 42.2752 109.351 43.4002V45.9877C109.351 47.2252 108.338 48.1252 107.213 48.1252C105.976 48.1252 105.076 47.1127 105.076 45.9877V43.4002C105.076 42.2752 105.976 41.2627 107.213 41.2627Z" fill="#474747" />
	<path fill-rule="evenodd" clip-rule="evenodd" d="M97.7633 41.2627C99.0008 41.2627 99.9008 42.2752 99.9008 43.4002V45.9877C99.9008 47.2252 98.8883 48.1252 97.7633 48.1252C96.5258 48.1252 95.6258 47.1127 95.6258 45.9877V43.4002C95.6258 42.2752 96.5258 41.2627 97.7633 41.2627Z" fill="#474747" />
	<path fill-rule="evenodd" clip-rule="evenodd" d="M92.4759 34.625H113.401C115.088 34.625 116.551 35.975 116.551 37.775C116.551 39.4625 115.201 40.925 113.401 40.925H92.4759C90.7884 40.925 89.3259 39.575 89.3259 37.775C89.4384 36.0875 90.7884 34.625 92.4759 34.625Z" fill="#575757" />
	<path fill-rule="evenodd" clip-rule="evenodd" d="M79.7634 92.6748C85.7259 92.6748 90.5634 97.3998 90.5634 103.362V123.95C90.5634 129.8 85.8384 134.637 79.8759 134.637H79.7634C73.9134 134.637 69.0759 129.912 69.0759 123.95V103.362C69.0759 97.5123 73.8009 92.6748 79.7634 92.6748Z" fill="#6F94A0" />
	<path fill-rule="evenodd" clip-rule="evenodd" d="M86.9635 125.188C89.4385 126.65 90.226 129.8 88.876 132.163L79.876 147.8C78.4135 150.275 75.2635 151.063 72.901 149.713C70.426 148.25 69.6385 145.1 70.9885 142.738L79.9885 127.1C81.3385 124.625 84.4885 123.838 86.9635 125.188Z" fill="#6F94A0" />
	<path fill-rule="evenodd" clip-rule="evenodd" d="M80.6634 127.663C82.5759 129.688 82.4634 132.95 80.4384 134.975L73.5759 141.388C71.5509 143.3 68.2884 143.188 66.2634 141.163C64.3509 139.138 64.4634 135.875 66.4884 133.85L73.3509 127.438C75.4884 125.413 78.6384 125.525 80.6634 127.663Z" fill="#6F94A0" />
	<path fill-rule="evenodd" clip-rule="evenodd" d="M85.3884 115.85C88.2009 115.85 90.5634 118.1 90.5634 121.025V139.025C90.5634 141.838 88.3134 144.2 85.3884 144.2C82.4634 144.2 80.2134 141.95 80.2134 139.025V121.025C80.2134 118.1 82.4634 115.85 85.3884 115.85Z" fill="#6F94A0" />
	<path fill-rule="evenodd" clip-rule="evenodd" d="M81.6758 95.825C84.1508 94.3625 87.3008 95.2625 88.7633 97.7375L95.1758 108.875C96.6383 111.35 95.7383 114.5 93.2633 115.85C90.7883 117.312 87.6383 116.413 86.2883 113.938L79.8758 102.8C78.4133 100.437 79.2008 97.2875 81.6758 95.825Z" fill="#6F94A0" />
	<path fill-rule="evenodd" clip-rule="evenodd" d="M75.0384 168.163C78.3009 168.163 81.0009 170.863 81.0009 174.125C81.0009 177.388 78.3009 180.088 75.0384 180.088C71.7759 180.088 69.0759 177.388 69.0759 174.125C69.0759 170.863 71.7759 168.163 75.0384 168.163Z" fill="#6F94A0" />
	<path fill-rule="evenodd" clip-rule="evenodd" d="M178.651 168.163C181.913 168.163 184.613 170.863 184.613 174.125C184.613 177.388 181.913 180.088 178.651 180.088C175.388 180.088 172.688 177.388 172.688 174.125C172.688 170.863 175.388 168.163 178.651 168.163Z" fill="#6F94A0" />
	<path fill-rule="evenodd" clip-rule="evenodd" d="M51.0759 168.163H64.8009C68.0634 168.163 70.7634 170.863 70.7634 174.125C70.7634 177.388 68.0634 180.088 64.8009 180.088H51.0759C47.8134 180.088 45.1134 177.388 45.1134 174.125C45.0009 170.863 47.7009 168.163 51.0759 168.163Z" fill="#6F94A0" />
	<path opacity="0.7572" fill-rule="evenodd" clip-rule="evenodd" d="M99.5633 53.75C100.801 53.075 102.376 53.4125 103.051 54.65L103.951 56.1125C104.626 57.35 104.288 58.925 103.051 59.6C101.813 60.275 100.238 59.9375 99.5633 58.7L98.6633 57.2375C97.8758 56 98.3258 54.425 99.5633 53.75Z" fill="#486069" />
	<path opacity="0.7572" fill-rule="evenodd" clip-rule="evenodd" d="M109.801 53.75C108.563 53.075 106.988 53.4125 106.313 54.65L105.413 56.1125C104.738 57.35 105.076 58.925 106.313 59.6C107.551 60.275 109.126 59.9375 109.801 58.7L110.701 57.2375C111.488 56 111.038 54.425 109.801 53.75Z" fill="#486069" />
	<path opacity="0.2637" fill-rule="evenodd" clip-rule="evenodd" d="M111.938 116.75H115.426C117.338 116.75 118.801 118.325 118.801 120.125C118.801 122.038 117.226 123.5 115.426 123.5H111.938C110.026 123.5 108.563 121.925 108.563 120.125C108.451 118.213 110.026 116.75 111.938 116.75Z" fill="#575757" />
	<path fill-rule="evenodd" clip-rule="evenodd" d="M91.4634 40.9248H112.388C113.513 40.9248 114.526 41.8248 114.526 43.0623C114.526 44.1873 113.626 45.1998 112.388 45.1998H91.4634C90.3384 45.1998 89.3259 44.2998 89.3259 43.0623C89.4384 41.9373 90.3384 40.9248 91.4634 40.9248Z" fill="#6F94A0" />
	<path d="M91.4633 63.875H115.088C115.876 63.875 116.551 64.55 116.551 65.3375V72.875C116.551 77.825 112.501 81.7625 107.663 81.7625H99.0008C94.0508 81.7625 90.1133 77.7125 90.1133 72.875V65.3375C90.1133 64.55 90.6758 63.875 91.4633 63.875Z" stroke="#6F94A0" stroke-width="6.5112" stroke-miterlimit="10" />
	<path fill-rule="evenodd" clip-rule="evenodd" d="M91.4633 63.875H115.088C115.876 63.875 116.551 64.55 116.551 65.3375V72.875C116.551 77.825 112.501 81.7625 107.663 81.7625H99.0008C94.0508 81.7625 90.1133 77.7125 90.1133 72.875V65.3375C90.1133 64.55 90.6758 63.875 91.4633 63.875Z" fill="#2C3B40" />
	<path d="M91.4633 63.875C91.3508 63.875 91.2383 63.875 91.1258 63.9875C91.1258 65.7875 92.5883 67.25 94.5008 67.25C96.3008 67.25 97.8758 65.7875 97.8758 63.875H91.4633Z" fill="white" />
	<path d="M103.726 63.875V65.5625C103.726 67.3625 105.188 68.9375 107.101 68.9375C108.901 68.9375 110.476 67.475 110.476 65.5625V63.875H103.726Z" fill="white" />
	<path fill-rule="evenodd" clip-rule="evenodd" d="M105.188 81.7623C105.076 75.3498 99.7883 70.1748 93.3758 70.1748C92.2508 70.1748 91.1258 70.3998 90.0008 70.6248V72.8748C90.0008 77.8248 94.0508 81.7623 98.8883 81.7623H105.188Z" fill="#D76868" />
	<path d="M106.313 76.4751C104.963 76.4751 103.951 77.3751 103.501 78.5001C103.163 77.3751 102.038 76.4751 100.688 76.4751C99.1134 76.4751 97.7634 77.8251 97.7634 79.4001V81.6501C98.1009 81.6501 98.5509 81.7626 98.8884 81.7626H107.551C108.113 81.7626 108.563 81.7626 109.126 81.6501V79.5126C109.238 77.8251 107.888 76.4751 106.313 76.4751Z" fill="white" />
	<path d="M96.0758 78.1626C96.0758 76.3626 94.6133 74.7876 92.7008 74.7876C91.9133 74.7876 91.1258 75.1251 90.5633 75.5751C91.4633 78.1626 93.4883 80.3001 96.0758 81.2001V78.1626Z" fill="white" />
	<path fill-rule="evenodd" clip-rule="evenodd" d="M97.3133 63.875V65.5625C97.3133 67.3625 98.7758 68.9375 100.688 68.9375C102.601 68.9375 104.063 67.475 104.063 65.5625V63.875H97.3133Z" fill="white" />
</svg>